<svg width="224" height="225" viewBox="0 0 224 225" fill="none" xmlns="http://www.w3.org/2000/svg">
<path d="M211.6 121L223.8 54.1C224.107 52.3746 224.032 50.603 223.58 48.9097C223.129 47.2164 222.312 45.6424 221.188 44.2985C220.063 42.9546 218.658 41.8734 217.07 41.1307C215.483 40.3881 213.752 40.0022 212 40H54L49.7 16.4C48.8782 11.8003 46.464 7.63644 42.8805 4.63796C39.2969 1.63948 34.7725 -0.00239383 30.1 2.61965e-06H12C8.8174 2.61965e-06 5.76516 1.26429 3.51472 3.51472C1.26428 5.76516 0 8.8174 0 12C0 15.1826 1.26428 18.2348 3.51472 20.4853C5.76516 22.7357 8.8174 24 12 24H26.7L53.2 169.6C49.5132 173.344 46.805 177.938 45.3145 182.976C43.824 188.015 43.5972 193.343 44.654 198.49C45.7108 203.637 48.0187 208.444 51.374 212.488C54.7292 216.531 59.0285 219.686 63.8922 221.674C68.7559 223.662 74.0343 224.422 79.2613 223.887C84.4883 223.351 89.5029 221.537 93.8625 218.604C98.222 215.671 101.792 211.71 104.258 207.07C106.724 202.43 108.009 197.254 108 192C107.976 189.304 107.64 186.619 107 184H149C148.36 186.619 148.024 189.304 148 192C148 198.329 149.877 204.516 153.393 209.778C156.909 215.041 161.907 219.142 167.754 221.564C173.601 223.986 180.035 224.62 186.243 223.385C192.45 222.15 198.152 219.103 202.627 214.627C207.103 210.152 210.15 204.45 211.385 198.243C212.62 192.035 211.986 185.601 209.564 179.754C207.142 173.907 203.041 168.909 197.778 165.393C192.516 161.877 186.329 160 180 160H75.8L72.9 144H184.1C190.65 143.988 196.989 141.681 202.014 137.478C207.038 133.276 210.43 127.445 211.6 121ZM84 192C84 193.582 83.5308 195.129 82.6518 196.445C81.7727 197.76 80.5233 198.786 79.0615 199.391C77.5997 199.997 75.9911 200.155 74.4393 199.846C72.8874 199.538 71.462 198.776 70.3431 197.657C69.2243 196.538 68.4624 195.113 68.1537 193.561C67.845 192.009 68.0035 190.4 68.609 188.939C69.2145 187.477 70.2398 186.227 71.5554 185.348C72.871 184.469 74.4177 184 76 184C78.1217 184 80.1566 184.843 81.6569 186.343C83.1571 187.843 84 189.878 84 192ZM180 200C178.418 200 176.871 199.531 175.555 198.652C174.24 197.773 173.214 196.523 172.609 195.061C172.003 193.6 171.845 191.991 172.154 190.439C172.462 188.887 173.224 187.462 174.343 186.343C175.462 185.224 176.887 184.462 178.439 184.154C179.991 183.845 181.6 184.003 183.061 184.609C184.523 185.214 185.773 186.24 186.652 187.555C187.531 188.871 188 190.418 188 192C188 194.122 187.157 196.157 185.657 197.657C184.157 199.157 182.122 200 180 200ZM58.4 64H197.6L188 116.7C187.837 117.619 187.358 118.451 186.645 119.054C185.933 119.656 185.033 119.991 184.1 120H68.6L58.4 64Z" fill="black"/>
</svg>
